<svg viewBox="52 65 460 100" data-name="Layer 1" xmlns="http://www.w3.org/2000/svg" class="MuiSvgIcon-root" focusable="false" aria-hidden="true"><path d="M209.93 86.28a22.78 22.78 0 00-31.8 0l-8 7.79c-2.9-2.76-6.53-6.35-8-7.91a23.24 23.24 0 00-16-6.47 22.65 22.65 0 00-16 6.59L123 93.35l-4.35 4.31-.36.36-6.29 6.23-5.68 5.62a7 7 0 01-1 .84c-.36.24-.6.48-1 .72a11.14 11.14 0 01-4.35 1.56 17.16 17.16 0 01-3.51 0h-.12c-.24 0-.48-.12-.72-.12h-.24c-.25-.12-.49-.12-.73-.24s-.12-.12-.24-.12-.48-.12-.61-.24a.42.42 0 01-.24-.12c-.24-.12-.36-.24-.6-.24s-.61-.36-.85-.48-.24-.12-.36-.24-.36-.24-.6-.36-.25-.12-.25-.24c-.24-.12-.36-.36-.6-.48a10.87 10.87 0 01-3.27-7.9 11.37 11.37 0 013.27-7.9 11.09 11.09 0 018-3.24 11.62 11.62 0 018 3.24l2.42 2.39 8-7.78-2.41-2.52a22.78 22.78 0 00-31.8 0 22.27 22.27 0 000 31.5 1.66 1.66 0 00.48.36l11.73 11.37 23.82 23.6a5.6 5.6 0 008 0l19.82-19.64 20 19.76a5.6 5.6 0 008 0L210.05 118a22 22 0 006.53-15.69 22.66 22.66 0 00-6.65-16.03zm-87.41 55l-18-17.84c.12 0 .12 0 .24-.12s.25-.12.37-.12a8.42 8.42 0 001.57-.6c.12 0 .24-.12.36-.12a7.21 7.21 0 001.69-.84c.13-.12.25-.12.37-.24a11 11 0 001.57-1c.12 0 .12-.12.24-.12a7.5 7.5 0 001.57-1.2c.12-.11.24-.23.36-.23.49-.48 1.09-.84 1.58-1.32l11.48-11.38c.12-.12.24-.24.36-.24l9.8-9.7 2.27-2.21a11.1 11.1 0 018-3.24 11.58 11.58 0 018 3.24c1.57 1.55 5.2 5 8 7.78l-8 7.9-4.11 4.08zM202 109.87l-31.8 31.38-15.84-15.69L186 94.07a11.45 11.45 0 0116 0 10.9 10.9 0 013.26 7.9 11.4 11.4 0 01-3.26 7.9z" fill="url(#logo_cw_svg__linear-gradient)"></path><path class="logo_cw_svg__cls-2" d="M242.63 139.09a3.94 3.94 0 013.74 2.08h2.76a6.32 6.32 0 00-2.51-3.08 7.83 7.83 0 00-4-1.07 7 7 0 00-5.07 2 7.23 7.23 0 000 10.11 7.06 7.06 0 005.07 2 7.23 7.23 0 004-1.08 6.25 6.25 0 002.52-3h-2.76a3.91 3.91 0 01-3.74 2.07 4.51 4.51 0 01-3.43-1.38 5 5 0 01-1.33-3.64 5.13 5.13 0 011.33-3.63 4.76 4.76 0 013.42-1.38zM256 139.89a5.55 5.55 0 00-4 1.56 5.35 5.35 0 00-1.61 4.08 5.36 5.36 0 005.56 5.65 5.8 5.8 0 004.09-1.56 5.95 5.95 0 000-8.17 5.71 5.71 0 00-4.04-1.56zm2.3 8.41a3.27 3.27 0 01-2.37 1 3.09 3.09 0 01-2.31-1 4.59 4.59 0 010-5.54 3.31 3.31 0 014.68 0 3.7 3.7 0 011 2.77 3.86 3.86 0 01-1.05 2.77zM276.92 139.89a4.53 4.53 0 00-2.35.62 4.16 4.16 0 00-1.6 1.7 3.94 3.94 0 00-1.54-1.73 4.54 4.54 0 00-2.27-.59 3.76 3.76 0 00-3.53 1.9v-1.73h-2.27V151h2.27v-6.09a3 3 0 01.77-2.25 3 3 0 014.05 0 3.17 3.17 0 01.73 2.25V151h2.28v-6.13a3.17 3.17 0 01.73-2.25 2.64 2.64 0 012-.8 2.69 2.69 0 012 .8 3.18 3.18 0 01.74 2.25V151h2.27v-6.48a4.77 4.77 0 00-1.2-3.42 4.31 4.31 0 00-3.08-1.21zM297.15 139.89a4.52 4.52 0 00-2.34.62 4.19 4.19 0 00-1.61 1.7 3.88 3.88 0 00-1.54-1.73 4.51 4.51 0 00-2.27-.59 3.77 3.77 0 00-3.53 1.9v-1.73h-2.27V151h2.27v-6.09a3.06 3.06 0 01.77-2.25 2.7 2.7 0 012-.8 2.66 2.66 0 012 .8 3.18 3.18 0 01.74 2.25V151h2.27v-6.13a3.17 3.17 0 01.73-2.25 2.66 2.66 0 012-.8 2.7 2.7 0 012 .8 3.17 3.17 0 01.73 2.25V151h2.27v-6.48a4.77 4.77 0 00-1.22-3.46 4.23 4.23 0 00-3-1.17zM311.48 146.19a3.06 3.06 0 01-.77 2.25 2.7 2.7 0 01-2 .8 2.63 2.63 0 01-2-.8 3.18 3.18 0 01-.74-2.25v-6.13h-2.27v6.48a4.67 4.67 0 001.22 3.42 4.14 4.14 0 003.08 1.22 3.74 3.74 0 003.53-1.91V151h2.27v-10.94h-2.27zM322 139.89a3.77 3.77 0 00-3.53 1.9v-1.73h-2.27V151h2.27v-6.09a3.06 3.06 0 01.77-2.25 3 3 0 014.06 0 3.17 3.17 0 01.73 2.25V151h2.27v-6.48a4.67 4.67 0 00-1.22-3.42 4.1 4.1 0 00-3.08-1.21zM329.69 135.7a1.42 1.42 0 00-1.05.42 1.49 1.49 0 000 2.07 1.42 1.42 0 001.05.42 1.4 1.4 0 001-.42 1.49 1.49 0 000-2.07 1.67 1.67 0 00-1-.42zM330.8 140.06h-2.27V151h2.27zM346.81 140.06l-3.21 8.35-3.12-8.35h-4.64v-2.73h-2.34v2.73h-1.3v1.84h1.3v6.1c0 2 1 3 3.18 3h1.81v-1.9h-1.4a1.42 1.42 0 01-1-.28 1.11 1.11 0 01-.28-.9v-6h2.83l3.6 8.93-2.24 5.34h2.38l6.78-16.09h-2.38zM372.11 137.22l-2.93 11.19-2.9-11.19h-2.55l-3.15 11.26-2.9-11.26h-2.41l4 13.82h2.55l3.11-10.46 2.88 10.42h2.59l4.16-13.82zM379.91 139.89a5.41 5.41 0 00-4 1.52 5.6 5.6 0 00-1.54 4.12 5.66 5.66 0 001.5 4.12 5.23 5.23 0 003.92 1.56 5.4 5.4 0 003.28-1 4.92 4.92 0 001.82-2.46h-2.48a2.74 2.74 0 01-2.62 1.53 3 3 0 01-2.14-.8 3.23 3.23 0 01-.94-2.18h8.46a5.35 5.35 0 00.07-1.07 5.16 5.16 0 00-1.51-3.88 5.07 5.07 0 00-3.82-1.46zm-3.11 4.88a3.18 3.18 0 011-2.15 2.88 2.88 0 012.14-.79 3 3 0 012.13.79 3 3 0 01.91 2.15zM389.31 136.32H387V151h2.28zM394 136.32h-2.27V151H394zM402.24 139.89a3.76 3.76 0 00-3.53 1.9v-1.73h-2.31V151h2.27v-6.09a3.06 3.06 0 01.77-2.25 3 3 0 014.06 0 3.22 3.22 0 01.73 2.25V151h2.27v-6.48a4.67 4.67 0 00-1.22-3.42 4 4 0 00-3.04-1.21zM413.63 139.89a5.42 5.42 0 00-3.95 1.52 6.33 6.33 0 000 8.24 5.19 5.19 0 003.91 1.56 5.43 5.43 0 003.29-1 4.84 4.84 0 001.81-2.46h-2.48a2.73 2.73 0 01-2.62 1.53 3 3 0 01-2.13-.8 3.23 3.23 0 01-.94-2.18h8.45a5.35 5.35 0 00.07-1.07 5.19 5.19 0 00-1.5-3.88 5.08 5.08 0 00-3.91-1.46zm-3.11 4.88a3.19 3.19 0 011-2.15 2.87 2.87 0 012.13-.79 3 3 0 012.13.79 2.88 2.88 0 01.91 2.15zM426.63 145.19c-.63-.18-1.26-.32-1.92-.45a5.06 5.06 0 01-1.61-.56 1.12 1.12 0 01-.66-1 1.29 1.29 0 01.52-1.07 2.25 2.25 0 011.43-.41 2 2 0 011.44.45 1.76 1.76 0 01.56 1.28h2.34a3.43 3.43 0 00-1.23-2.57 5.5 5.5 0 00-6.18 0 2.89 2.89 0 00-1.19 2.35 2.35 2.35 0 00.67 1.77 3.44 3.44 0 001.6.9c.63.17 1.26.31 1.92.45a5.94 5.94 0 011.61.55 1.12 1.12 0 01.67 1 1.24 1.24 0 01-.6 1.12 2.46 2.46 0 01-1.47.42 2.14 2.14 0 01-1.47-.45 1.76 1.76 0 01-.59-1.28h-2.38a3.38 3.38 0 001.29 2.6 4.88 4.88 0 003.08.9 5.21 5.21 0 003.11-.9 2.81 2.81 0 001.22-2.32 2.49 2.49 0 00-.66-1.84 2.87 2.87 0 00-1.5-.94zM438.37 146.16a3.57 3.57 0 00-1.6-.94c-.63-.17-1.26-.31-1.93-.45a4.77 4.77 0 01-1.6-.55 1.12 1.12 0 01-.67-1 1.28 1.28 0 01.53-1.07 2.23 2.23 0 011.43-.42 2 2 0 011.43.45 1.74 1.74 0 01.56 1.28h2.34a3.4 3.4 0 00-1.22-2.56 5.49 5.49 0 00-6.19 0 2.92 2.92 0 00-1.18 2.36 2.38 2.38 0 00.66 1.76 3.48 3.48 0 001.61.9c.63.18 1.25.32 1.92.45a5.93 5.93 0 011.61.56 1.12 1.12 0 01.66 1 1.22 1.22 0 01-.56 1.07 2.41 2.41 0 01-1.47.41 2.08 2.08 0 01-1.46-.45 1.79 1.79 0 01-.6-1.28h-2.34a3.36 3.36 0 001.29 2.6 4.88 4.88 0 003.08.9 5.14 5.14 0 003.11-.9A2.79 2.79 0 00439 148a2.28 2.28 0 00-.63-1.84zM235.05 94.06a16.63 16.63 0 016.5-6.57 18.82 18.82 0 019.45-2.36 18.05 18.05 0 0111.08 3.42 16.38 16.38 0 016.16 9.32h-9.74a7.86 7.86 0 00-3.08-3.47 8.61 8.61 0 00-4.53-1.19 8.47 8.47 0 00-6.63 2.85 11 11 0 00-2.53 7.61 11 11 0 002.53 7.6 8.47 8.47 0 006.63 2.85 8.7 8.7 0 004.53-1.19 7.86 7.86 0 003.08-3.47h9.73a16.27 16.27 0 01-6.16 9.3 18.16 18.16 0 01-11.07 3.38 18.81 18.81 0 01-9.44-2.35 16.64 16.64 0 01-6.5-6.55 19.38 19.38 0 01-2.33-9.57 19.61 19.61 0 012.32-9.61zM280.94 119.87a17.81 17.81 0 01-6.78-6.65 19.58 19.58 0 010-19.18 17.83 17.83 0 016.78-6.63 19.73 19.73 0 0118.79 0 17.5 17.5 0 016.73 6.59 19.85 19.85 0 010 19.18 17.75 17.75 0 01-6.73 6.65 19.69 19.69 0 01-18.77 0zm16.36-8.6a11 11 0 002.61-7.66 11 11 0 00-2.61-7.68 10 10 0 00-14 0 11 11 0 00-2.61 7.71 11 11 0 002.61 7.69 9.91 9.91 0 0014 0zM345.83 121.89H337l-14.83-22.42v22.42h-8.85V85.55h8.85L337 108.07V85.55h8.85zM385.79 121.89h-8.85l-14.81-22.42v22.42h-8.85V85.55h8.85l14.81 22.52V85.55h8.85zM402.1 92.64V100H414v6.83h-11.9v8h13.41v7.1h-22.26V85.55h22.26v7.09zM422.24 94.06a16.6 16.6 0 016.49-6.57 18.88 18.88 0 019.45-2.36 18.07 18.07 0 0111.08 3.42 16.43 16.43 0 016.16 9.32h-9.73a7.92 7.92 0 00-3.08-3.47 8.61 8.61 0 00-4.53-1.19 8.45 8.45 0 00-6.63 2.85 11 11 0 00-2.54 7.61 11 11 0 002.54 7.6 8.45 8.45 0 006.63 2.85 8.7 8.7 0 004.53-1.19 7.92 7.92 0 003.08-3.47h9.73a16.32 16.32 0 01-6.16 9.3 18.18 18.18 0 01-11.08 3.38 18.88 18.88 0 01-9.45-2.35 16.62 16.62 0 01-6.49-6.55 19.27 19.27 0 01-2.33-9.57 19.5 19.5 0 012.33-9.61zM486.63 85.55v7.09H477v29.25h-8.85V92.64h-9.63v-7.09z"></path><defs><linearGradient id="logo_cw_svg__linear-gradient" x1="76.09" y1="118.75" x2="216.58" y2="118.75" gradientTransform="matrix(1 0 0 -1 0 236.11)" gradientUnits="userSpaceOnUse"><stop offset="0.05" stop-color="#946eaf"></stop><stop offset="0.81" stop-color="#569dd5"></stop></linearGradient><style>.logo_cw_svg__cls-2{fill:#181d4c}</style></defs></svg>